# xmcd CD database file
#
# Track frame offsets:
#	750
#	16753
#	28673
#	45238
#	56989
#	74194
#	101720
#	117268
#	134917
#	146282
#	163392
#	175621
#	191527
#	206424
#	235268
#	250345
#	264005
#	280804
#	297154
#	323021
#
# Disc length: 4743 seconds
#
# Revision: 0
# Processed by: cddbd v1.5PL3 Copyright (c) Steve Scherf et al.
# Submitted via: CDex 1.50
#
DISCID=29127d14
DTITLE=Tom Astor - Live
DYEAR=2004
DGENRE=Country
TTITLE0=Rocky Mountain Man
TTITLE1=Alter Freund, überhol dich nicht selbst
TTITLE2=Mein Eldorado
TTITLE3=Hit Medley (Und ich bin dein Freund, Ich bin kein Dichter, kein Poet, Freundschaft)
TTITLE4=International Airport - Frankfurt am Main
TTITLE5=Trucker Medley (Meine Antwort ist die große Autobahn, 14 Tage aufm Brenner, Radwechsel)
TTITLE6=Geistertruck
TTITLE7=Mit einer starken Frau
TTITLE8=Some Broken Hearts never Mend
TTITLE9=Wenn ich dich mal brauch
TTITLE10=Freunde
TTITLE11=Irgendwie wirds schon gehn
TTITLE12=Der Wind wird sich bald wieder drehn
TTITLE13=Tom Dooley
TTITLE14=Wieder ein Morgen
TTITLE15=Take It Easy, nimms leicht
TTITLE16=Take Me Home, Country Roads
TTITLE17=Hallo, guten Morgen Deutschland
TTITLE18=Junger Adler
TTITLE19=Auf Wiedersehen, Good Bye
EXTD=YEAR: 2004
EXTT0=
EXTT1=
EXTT2=
EXTT3=
EXTT4=
EXTT5=
EXTT6=
EXTT7=
EXTT8=
EXTT9=
EXTT10=
EXTT11=
EXTT12=
EXTT13=
EXTT14=
EXTT15=
EXTT16=
EXTT17=
EXTT18=
EXTT19=
PLAYORDER=
